Simulation
nRows=20
nColumns=15
endheader
time  TH_x TH_y TH_z SC_y  SC_z  SC_x  AC_y  AC_z  AC_x  GH_y  GH_z  GH_yy  EL_x  PS_y
2.8725  0.000000  0.000000  0.000000  -34.66094476619718  0.49761489587135616  -23.375719853588976  37.73936841267012  21.32014867037645  14.924611932091668  41.58882190010587  7.662859029918002  -34.33161630334821  14.06748555802176  120.000000
2.92995  0.000000  0.000000  0.000000  -34.76048714016525  0.4583096494499517  -22.493249744528125  38.22478861057924  21.292602176787028  14.438756848161683  52.20955056448008  6.67240093780386  -42.11360092197375  14.428526152416064  120.000000
2.9874  0.000000  0.000000  0.000000  -34.93699546919382  0.49241665162069026  -21.413526588463547  38.723571064352114  21.158057061577942  13.838256167491677  64.33524443338911  6.12534789914737  -51.85411633119198  14.874043581250408  120.000000
3.0448500000000003  0.000000  0.000000  0.000000  -35.15970799066265  0.6043063545794422  -20.18558728362469  39.200468142781084  20.9102099275774  13.15136960306956  76.4023050748431  5.964682788741979  -62.02774982354017  15.359278246465164  120.000000
3.1023  0.000000  0.000000  0.000000  -35.39733853840623  0.7881882526143502  -18.862235869946765  39.634660321326045  20.554064478111336  12.40803025828062  86.88108233927092  6.074824920891725  -71.08650970150003  15.841666240218812  120.000000
3.15975  0.000000  0.000000  0.000000  -35.62431423908348  1.0291367279611623  -17.49885938148531  40.02081232958199  20.107418844720172  11.638705957344468  95.0755733964413  6.32336100925514  -78.2769414639647  16.29119064609982  120.000000
3.2172  0.000000  0.000000  0.000000  -35.82273771729004  1.3040605435016728  -16.147754610477197  40.36366935288758  19.595270911668383  10.873823640957607  101.03022139884719  6.603291727204567  -83.56198523947039  16.697423160979262  120.000000
3.2746500000000003  0.000000  0.000000  0.000000  -35.97941110328492  1.5861278869853157  -14.850217880690378  40.673500094979566  19.04215621400969  10.13922508269918  105.1001216183298  6.847911617875768  -87.20432876745882  17.068439282012438  120.000000
3.3321  0.000000  0.000000  0.000000  -36.08452969265547  1.8510813768123544  -13.636033622096196  40.96245147845576  18.4686078481661  9.45176177965288  107.68545443653915  7.026581676241308  -89.51439740015715  17.420668600292128  120.000000
3.38955  0.000000  0.000000  0.000000  -36.13426656743185  2.08330417325507  -12.525980108449257  41.24151593163376  17.890038689355816  8.818753793430695  109.14153397813206  7.136182219085486  -90.77241819061038  17.769326614976837  120.000000
3.447  0.000000  0.000000  0.000000  -36.13323553667704  2.274332799750883  -11.531223562150258  41.51538443894896  17.317962625413028  8.243255337802687  109.75142907459926  7.19178178699523  -91.20930007192753  18.123188415235933  120.000000
3.5044500000000003  0.000000  0.000000  0.000000  -36.093431842128176  2.420730239090168  -10.653968495445486  41.781698791864166  16.76157969518925  7.727193951762677  109.72686827341009  7.216161145872574  -91.00831751648852  18.48437652037267  120.000000
3.5619  0.000000  0.000000  0.000000  -36.029596168155805  2.5245610362624684  -9.891604378606793  42.03477084852407  16.229258652975346  7.270225665200831  109.22636352102467  7.231728616809371  -90.31728805458673  18.85129800624045  120.000000
3.61935  0.000000  0.000000  0.000000  -35.9544568717118  2.5919097257455395  -9.23982955823466  42.26686960173061  15.728533140442455  6.87045863409769  108.371471238273  7.255358845758437  -89.2568473175391  19.22134465875713  120.000000
3.6768  0.000000  0.000000  0.000000  -35.87520188513369  2.630929897800577  -8.695052350672489  42.46918848504639  15.265486102883258  6.524783707295169  107.25237342127996  7.297319167693703  -87.91943520698827  19.592870119962118  120.000000
3.7342500000000003  0.000000  0.000000  0.000000  -35.79232361923525  2.6492362605506563  -8.255757045285488  42.63226405549481  14.844039214292929  6.2285564871045045  105.92369474319936  7.362121905280606  -86.36099025137513  19.965644053930887  120.000000
3.7917  0.000000  0.000000  0.000000  -35.701134081486465  2.6517601062760203  -7.922376850179641  42.74588221429542  14.465382998342722  5.975874590329208  104.3939553288862  7.450161770815118  -84.58865665860512  20.340274101376185  120.000000
3.84915  0.000000  0.000000  0.000000  -35.59346483643962  2.640083429769667  -7.696638615841856  42.80002580087865  14.12803257125783  5.75990649116781  102.61332429595367  7.559511927214256  -82.54752111728249  20.717157034030937  120.000000
3.9066  0.000000  0.000000  0.000000  -35.45953915634342  2.611796559124223  -7.580746909036082  42.785926706007096  13.828518602212954  5.573302974429831  100.46672208451007  7.687644350907182  -80.11378828678507  21.095270773076326  120.000000
3.9640500000000003  0.000000  0.000000  0.000000  -35.28821552800461  2.562068184379506  -7.577239841130463  42.69888388031676  13.562352903026275  5.408219047467422  97.7806910176739  7.8362033303685745  -77.10339018099204  21.47203364012961  120.000000
